<?xml version="1.0" standalone="no"?>
<!DOCTYPE svg PUBLIC "-//W3C//DTD SVG 20010904//EN"
 "http://www.w3.org/TR/2001/REC-SVG-20010904/DTD/svg10.dtd">
<svg version="1.0" xmlns="http://www.w3.org/2000/svg"
 width="284.000000pt" height="253.000000pt" viewBox="0 0 284.000000 253.000000"
 preserveAspectRatio="xMidYMid meet">

<g transform="translate(0.000000,253.000000) scale(0.100000,-0.100000)"
fill="#000000" stroke="none">
<path d="M1604 2399 c-10 -17 13 -36 27 -22 12 12 4 33 -11 33 -5 0 -12 -5
-16 -11z"/>
<path d="M1407 2383 c-4 -3 -7 -39 -7 -80 0 -66 2 -73 20 -73 17 0 20 7 20 40
0 22 3 40 8 40 4 0 21 -21 37 -45 40 -59 65 -60 65 -2 0 23 3 59 6 80 6 33 4
37 -15 37 -18 0 -21 -6 -21 -40 0 -22 -4 -40 -8 -40 -5 0 -23 20 -41 45 -30
42 -49 54 -64 38z"/>
<path d="M1186 2348 c-32 -149 -32 -158 -6 -151 11 3 20 11 20 18 0 15 56 25
69 12 5 -5 18 -7 30 -5 19 3 17 8 -25 76 -48 76 -79 93 -88 50z m52 -66 c2
-15 -2 -22 -12 -22 -11 0 -16 9 -16 26 0 31 23 28 28 -4z"/>
<path d="M1758 2324 c-33 -17 -49 -67 -35 -107 11 -33 34 -47 76 -47 23 0 31
5 31 18 0 13 -8 18 -26 17 -15 0 -32 8 -40 20 -29 43 32 97 69 61 12 -12 17
-13 25 -3 13 15 5 30 -25 46 -28 14 -42 14 -75 -5z"/>
<path d="M997 2313 c-9 -14 45 -153 59 -153 24 0 23 16 -1 86 -22 63 -45 89
-58 67z"/>
<path d="M858 2259 c-14 -8 -16 -19 -11 -59 3 -28 2 -50 -3 -50 -5 0 -26 11
-46 25 -71 48 -81 27 -31 -64 29 -53 42 -68 53 -61 11 7 12 13 2 36 -17 36 -9
41 25 14 l28 -22 5 47 5 47 18 -31 c10 -17 23 -31 28 -31 16 0 22 29 10 44 -6
7 -24 36 -39 64 -22 41 -31 49 -44 41z"/>
<path d="M1961 2224 c-60 -50 -27 -147 50 -147 74 0 112 101 55 149 -35 31
-67 30 -105 -2z m89 -34 c15 -27 4 -59 -23 -69 -45 -17 -78 25 -52 65 19 30
60 32 75 4z"/>
<path d="M1305 2110 c-349 -55 -629 -308 -721 -655 -28 -105 -26 -313 5 -420
105 -375 417 -625 802 -642 312 -15 594 130 766 393 322 494 61 1158 -512
1304 -93 24 -254 33 -340 20z m305 -30 c96 -20 222 -73 307 -132 68 -46 170
-152 218 -228 177 -272 190 -580 37 -875 -38 -73 -65 -108 -147 -190 -82 -83
-116 -109 -191 -147 -146 -76 -244 -100 -399 -101 -150 0 -239 19 -369 80 -94
45 -150 83 -224 155 -198 192 -294 473 -251 738 53 334 304 612 624 693 125
32 262 35 395 7z"/>
<path d="M1025 1940 c10 -11 20 -20 23 -20 3 0 -3 9 -13 20 -10 11 -20 20 -23
20 -3 0 3 -9 13 -20z"/>
<path d="M1824 1938 l-19 -23 23 19 c21 18 27 26 19 26 -2 0 -12 -10 -23 -22z"/>
<path d="M1628 1863 c7 -3 16 -2 19 1 4 3 -2 6 -13 5 -11 0 -14 -3 -6 -6z"/>
<path d="M1538 1853 c7 -3 16 -2 19 1 4 3 -2 6 -13 5 -11 0 -14 -3 -6 -6z"/>
<path d="M1367 1733 c-31 -88 -47 -193 -47 -310 0 -112 1 -116 34 -176 19 -34
46 -98 61 -142 15 -44 29 -87 32 -95 3 -8 16 26 29 75 14 50 41 125 61 167
l35 76 -32 99 c-55 166 -134 353 -150 353 -3 0 -14 -21 -23 -47z"/>
<path d="M1050 1505 c0 -3 11 -27 24 -53 47 -95 86 -255 86 -356 0 -86 19
-131 87 -206 36 -40 78 -84 94 -98 l29 -24 26 59 c30 66 32 106 8 196 -36 141
-129 295 -240 396 -60 55 -114 96 -114 86z"/>
<path d="M1728 1462 c-105 -112 -170 -247 -248 -517 -18 -60 -43 -130 -56
-154 -13 -24 -24 -50 -24 -57 0 -26 39 -36 111 -29 l69 7 39 69 c37 68 38 73
44 197 7 153 36 309 81 437 18 52 32 95 31 95 -1 0 -22 -21 -47 -48z"/>
<path d="M1808 1343 c-60 -63 -89 -133 -99 -242 -4 -53 -11 -117 -15 -143 -7
-58 7 -63 32 -10 14 28 125 432 119 432 0 0 -17 -17 -37 -37z"/>
<path d="M981 999 c34 -108 69 -157 169 -234 85 -65 90 -67 149 -48 28 9 51
20 51 23 0 16 -73 89 -82 84 -6 -4 -8 -2 -4 4 7 12 -33 44 -46 36 -5 -3 -7 0
-6 8 2 7 -3 12 -10 10 -8 -1 -11 2 -8 7 11 17 -187 157 -206 145 -6 -4 -8 -3
-5 3 4 6 1 13 -7 16 -10 4 -9 -7 5 -54z"/>
<path d="M1811 970 c-68 -38 -103 -74 -140 -148 l-30 -59 72 -6 c39 -4 76 -2
81 3 7 7 106 228 106 238 0 10 -44 -3 -89 -28z"/>
<path d="M581 2066 l-33 -35 53 -60 53 -61 38 37 c36 35 49 63 30 63 -5 0 -17
-9 -27 -20 -20 -22 -45 -27 -45 -8 0 6 9 21 20 33 17 18 18 24 7 33 -11 9 -18
7 -32 -8 -10 -11 -24 -20 -32 -20 -22 0 -15 27 12 44 25 17 26 36 1 36 -6 0
-27 -15 -45 -34z"/>
<path d="M2182 2049 c-59 -32 -71 -43 -62 -54 6 -8 18 -11 26 -8 18 7 56 -26
50 -43 -7 -18 20 -51 32 -39 6 6 22 43 36 84 20 56 24 77 15 87 -15 19 -14 19
-97 -27z m48 -40 c-12 -21 -25 -25 -35 -8 -8 11 25 40 37 33 5 -3 3 -14 -2
-25z"/>
<path d="M448 1923 c-11 -13 -9 -18 10 -31 26 -17 27 -25 6 -58 -16 -24 -18
-24 -41 -8 -22 14 -27 14 -39 2 -12 -12 -5 -21 53 -60 50 -35 71 -44 80 -36
19 15 16 23 -12 38 -30 16 -31 29 -4 59 20 21 22 21 40 5 18 -16 49 -13 49 5
0 5 -29 30 -64 54 -57 40 -66 44 -78 30z"/>
<path d="M2343 1887 c-64 -43 -73 -56 -49 -76 10 -9 16 -8 26 4 12 14 40 21
40 10 0 -4 -7 -19 -15 -35 -15 -28 -11 -60 6 -60 5 0 15 11 21 25 7 15 20 25
32 25 30 0 66 28 66 51 0 20 -47 99 -59 99 -3 0 -34 -19 -68 -43z m87 -44 c0
-21 -30 -28 -48 -9 -15 15 -15 17 3 30 22 16 45 5 45 -21z"/>
<path d="M2513 1698 c2 -18 -8 -26 -53 -44 -58 -24 -65 -31 -51 -53 8 -12 19
-10 70 12 54 23 61 25 69 10 6 -9 16 -14 25 -10 14 5 14 12 -6 56 -14 33 -28
51 -39 51 -12 0 -17 -7 -15 -22z"/>
<path d="M304 1656 c-65 -55 -16 -154 70 -143 93 13 106 125 19 158 -38 14
-60 11 -89 -15z m88 -33 c23 -21 23 -36 -2 -58 -41 -37 -97 24 -58 63 17 17
38 15 60 -5z"/>
<path d="M2510 1481 c0 -25 21 -61 36 -61 12 0 15 6 10 23 -3 12 -6 28 -6 35
0 6 -9 12 -20 12 -11 0 -20 -4 -20 -9z"/>
<path d="M231 1416 c-6 -8 -14 -36 -17 -63 l-6 -48 78 -13 c43 -6 82 -8 86 -4
12 12 14 110 2 122 -17 17 -130 22 -143 6z m49 -51 c0 -18 -5 -25 -20 -25 -23
0 -24 4 -10 31 15 27 30 24 30 -6z m70 -10 c0 -18 -5 -25 -20 -25 -21 0 -24 8
-14 34 10 25 34 19 34 -9z"/>
<path d="M2534 1368 c3 -13 6 -31 6 -40 0 -11 8 -18 20 -18 22 0 25 16 10 54
-12 33 -45 36 -36 4z"/>
<path d="M2486 1180 c-10 -52 -7 -87 9 -100 8 -7 42 -14 75 -16 68 -4 73 1 84
77 l7 46 -54 6 c-29 4 -67 9 -84 13 -28 5 -31 3 -37 -26z m64 -45 c0 -15 -6
-25 -14 -25 -16 0 -25 19 -18 38 8 22 32 13 32 -13z m68 -7 c-5 -32 -28 -35
-28 -4 0 17 5 26 16 26 10 0 14 -7 12 -22z"/>
<path d="M290 1156 c0 -35 10 -56 26 -56 14 0 19 36 8 64 -10 25 -34 19 -34
-8z"/>
<path d="M300 1065 c0 -16 30 -75 39 -75 16 0 19 13 9 48 -6 22 -15 32 -28 32
-11 0 -20 -2 -20 -5z"/>
<path d="M2463 970 c-78 -32 -45 -160 42 -160 80 0 115 93 54 144 -32 27 -58
31 -96 16z m65 -46 c28 -19 28 -49 0 -68 -24 -17 -51 -8 -68 24 -8 15 -6 24
10 40 24 24 29 24 58 4z"/>
<path d="M385 875 c-60 -29 -65 -29 -65 -10 0 16 -25 21 -34 6 -5 -7 27 -95
40 -109 7 -9 29 15 29 33 0 15 13 25 53 40 41 16 52 24 50 39 -4 27 -16 27
-73 1z"/>
<path d="M2349 754 c-10 -13 -8 -19 15 -37 l28 -22 -22 -28 c-21 -27 -23 -27
-46 -12 -25 16 -44 13 -44 -8 0 -7 30 -31 65 -55 56 -36 66 -40 72 -26 4 11
-2 23 -17 34 l-23 17 22 32 c21 29 23 30 46 15 23 -15 45 -12 45 6 0 5 -29 29
-64 53 -56 39 -66 43 -77 31z"/>
<path d="M488 730 c-12 -20 -22 -28 -33 -24 -21 8 -55 -23 -55 -50 0 -30 48
-98 63 -90 7 4 38 25 70 46 51 35 56 41 46 59 -10 19 -12 19 -28 5 -37 -34
-53 -14 -25 29 13 20 14 28 4 40 -17 21 -23 19 -42 -15z m0 -86 c4 -27 -26
-40 -46 -20 -13 13 -13 18 -2 31 18 21 44 15 48 -11z"/>
<path d="M627 558 c-44 -107 -50 -128 -37 -142 10 -13 22 -10 86 22 75 37 87
54 43 60 -33 5 -58 29 -52 51 2 9 -2 23 -11 30 -13 11 -17 8 -29 -21z m40 -75
c3 -7 -5 -17 -16 -23 -18 -9 -21 -8 -21 8 0 32 28 43 37 15z"/>
<path d="M2165 535 c-32 -27 -37 -37 -28 -46 10 -10 18 -8 38 11 19 18 28 21
37 12 9 -9 6 -17 -11 -36 -28 -29 -12 -44 23 -21 38 25 53 8 21 -25 -17 -18
-23 -30 -16 -34 13 -8 25 -2 63 33 l28 24 -51 58 c-28 33 -54 59 -57 59 -4 -1
-25 -16 -47 -35z"/>
<path d="M2030 435 c0 -4 7 -19 15 -35 14 -26 14 -30 1 -30 -8 0 -18 4 -21 10
-3 5 -15 15 -26 21 -20 10 -20 8 -14 -38 l6 -48 -20 23 c-11 12 -21 28 -24 35
-3 9 -7 9 -19 -1 -14 -11 -12 -21 24 -82 47 -82 68 -81 68 1 0 27 2 49 5 49 3
0 23 -11 44 -25 22 -15 45 -23 54 -19 10 3 17 7 17 9 0 1 -16 29 -35 61 -19
32 -35 61 -35 66 0 4 -9 8 -20 8 -11 0 -20 -2 -20 -5z"/>
<path d="M800 390 c-57 -57 -19 -150 60 -150 10 0 31 11 47 24 37 32 39 99 4
127 -31 25 -85 25 -111 -1z m95 -41 c14 -44 -21 -78 -65 -64 -14 4 -20 15 -20
35 0 52 71 76 85 29z"/>
<path d="M1795 320 c-3 -5 4 -41 17 -80 17 -51 27 -70 40 -70 23 0 23 9 -4 92
-20 63 -38 82 -53 58z"/>
<path d="M1035 310 c-9 -15 3 -30 20 -24 7 3 23 1 34 -6 38 -20 19 -90 -24
-90 -13 0 -27 5 -30 10 -9 15 -35 12 -35 -4 0 -20 39 -46 68 -46 35 0 82 52
82 90 0 41 -39 80 -79 80 -16 0 -33 -4 -36 -10z"/>
<path d="M1670 280 c0 -18 -53 -33 -72 -21 -17 11 -48 15 -48 7 0 -2 18 -36
41 -75 32 -56 46 -71 64 -71 21 0 24 7 35 73 6 39 13 78 15 85 3 7 -4 12 -15
12 -11 0 -20 -5 -20 -10z m-10 -72 c0 -19 -17 -42 -22 -32 -17 31 -16 44 2 44
11 0 20 -6 20 -12z"/>
<path d="M1316 239 c-11 -57 -7 -126 8 -132 20 -8 26 2 26 45 0 21 3 38 8 38
4 0 20 -20 35 -45 18 -28 36 -45 48 -45 16 0 19 8 19 58 0 31 3 67 6 80 5 18
2 22 -15 22 -17 0 -21 -6 -21 -34 0 -52 -15 -52 -50 -1 -36 53 -55 57 -64 14z"/>
</g>
</svg>
